<?xml version="1.0" standalone="no"?>
<!DOCTYPE svg PUBLIC "-//W3C//DTD SVG 20010904//EN"
 "http://www.w3.org/TR/2001/REC-SVG-20010904/DTD/svg10.dtd">
<svg version="1.0" xmlns="http://www.w3.org/2000/svg"
 width="500.000000pt" height="500.000000pt" viewBox="0 0 500.000000 500.000000"
 preserveAspectRatio="xMidYMid meet">
<metadata>
Created by potrace 1.14, written by Peter Selinger 2001-2017
</metadata>
<g transform="translate(0.000000,500.000000) scale(0.100000,-0.100000)"
fill="#000000" stroke="none">
<path d="M2220 4749 c-19 -4 -69 -11 -110 -14 -41 -3 -86 -8 -100 -10 -14 -3
-45 -7 -70 -10 -58 -8 -122 -27 -185 -56 -27 -13 -52 -24 -55 -24 -48 -12
-198 -115 -257 -175 -83 -86 -103 -110 -103 -124 0 -9 -13 -29 -30 -44 -40
-39 -59 -78 -54 -115 2 -20 -3 -38 -14 -50 -24 -27 -25 -260 -1 -298 9 -13 20
-39 23 -56 8 -33 72 -98 114 -114 21 -8 31 -28 15 -30 -5 0 -35 -2 -68 -4
-330 -20 -395 -31 -395 -66 0 -14 9 -21 31 -26 35 -7 41 -19 58 -111 20 -108
93 -213 186 -267 61 -36 182 -73 260 -80 39 -4 81 -8 95 -10 79 -12 140 -16
270 -20 80 -3 165 -7 190 -10 25 -2 70 -7 100 -10 104 -10 147 -23 169 -49 7
-9 10 -16 7 -16 -4 0 -1 -10 6 -22 6 -13 13 -36 14 -51 2 -16 5 -35 8 -42 2
-7 2 -16 -2 -19 -3 -4 -7 -73 -7 -154 -2 -143 -7 -179 -29 -194 -23 -15 -157
16 -210 50 -6 3 -15 7 -21 8 -5 1 -30 7 -55 14 -61 15 -100 19 -275 26 -82 3
-163 7 -180 8 -62 5 -179 -25 -240 -61 -132 -79 -239 -185 -301 -298 -10 -20
-67 -162 -70 -177 -1 -5 -2 -11 -3 -15 0 -3 -11 3 -24 14 -27 25 -64 23 -113
-7 -62 -39 -84 -111 -54 -178 22 -50 65 -74 122 -70 l41 3 23 -85 c35 -130 71
-212 126 -286 33 -44 38 -58 38 -105 0 -79 -46 -167 -109 -211 -22 -15 -25
-15 -55 1 -35 20 -72 18 -98 -6 -24 -22 -48 -72 -38 -78 4 -3 6 -14 3 -25 -3
-11 0 -26 6 -33 6 -8 7 -18 3 -22 -4 -5 2 -5 12 -1 19 7 19 6 2 -12 -12 -14
-37 -22 -81 -27 -56 -6 -68 -11 -85 -35 -11 -15 -38 -35 -60 -44 -36 -14 -40
-20 -41 -51 -3 -65 -3 -70 -14 -81 -13 -13 -6 -90 10 -116 9 -16 98 -39 205
-54 14 -2 41 -6 60 -8 19 -3 44 -7 55 -10 75 -17 251 -54 345 -72 14 -3 64
-14 111 -24 48 -11 102 -22 120 -24 19 -3 54 -11 79 -17 25 -6 54 -13 65 -15
11 -2 65 -13 120 -25 55 -11 114 -23 130 -25 17 -1 77 -14 135 -28 58 -13 119
-27 135 -29 17 -3 39 -8 50 -10 37 -9 180 -39 250 -53 137 -28 272 -13 565 63
96 25 186 47 200 50 14 2 45 9 70 14 25 6 52 12 60 14 8 2 53 13 100 24 108
27 108 27 215 47 50 9 111 25 137 37 l47 20 -3 63 c-1 34 -8 69 -14 77 -7 7
-13 37 -14 65 l-2 51 -48 11 c-31 8 -49 18 -53 30 -6 20 -45 35 -115 45 -25 4
-52 12 -60 18 -52 40 -146 274 -124 309 9 13 34 -12 34 -33 0 -29 42 -18 47
12 7 51 13 56 34 30 27 -34 55 -18 51 28 -4 35 18 51 43 31 27 -22 45 -4 45
44 0 32 5 46 17 50 9 4 20 1 24 -6 7 -10 11 -10 24 2 11 12 13 23 6 45 -14 50
15 99 43 76 10 -9 15 -8 19 3 4 9 3 18 -2 20 -8 5 -5 95 3 103 3 3 16 5 30 6
l25 0 -20 48 c-18 48 -18 50 0 68 10 10 25 21 32 24 12 5 12 7 0 15 -7 5 -11
14 -7 20 3 5 -1 16 -10 23 -21 17 -10 54 24 84 26 23 26 24 5 20 -13 -2 -22
-1 -21 3 1 4 -3 17 -10 30 -15 26 -10 50 19 83 l21 24 -28 5 c-38 7 -50 50
-23 84 24 30 25 58 3 49 -9 -3 -20 0 -25 8 -11 18 -12 42 0 35 4 -3 22 0 39 6
39 15 107 -6 130 -40 13 -20 14 -35 4 -110 -14 -99 -21 -139 -28 -164 -3 -10
-7 -30 -10 -45 -4 -22 -14 -74 -29 -143 -6 -28 -16 -83 -21 -115 -3 -22 -8
-43 -10 -47 -5 -8 -33 -149 -41 -208 -11 -79 -7 -129 12 -150 16 -18 78 -38
99 -31 17 4 54 -9 71 -26 12 -12 41 -18 98 -21 73 -4 94 -11 194 -58 149 -71
230 -96 312 -97 88 -1 136 25 171 94 42 80 31 169 -26 225 -64 61 -132 69
-430 49 -109 -7 -111 -7 -151 19 -51 34 -67 35 -151 10 -22 -6 -23 -4 -18 27
5 34 11 76 21 174 6 55 34 268 40 301 1 11 6 52 10 90 4 38 9 80 11 94 11 68
5 209 -11 240 -19 37 -76 66 -153 76 -29 3 -55 11 -58 15 -3 5 -15 9 -26 9
-12 0 -32 10 -45 22 -27 25 -73 32 -112 16 -41 -17 -50 -17 -60 -1 -4 9 -20
16 -34 16 -15 0 -32 6 -38 13 -6 8 -18 14 -25 14 -8 0 -14 4 -14 9 0 10 -39
27 -52 23 -5 -1 -8 2 -8 6 0 5 -61 8 -136 8 -110 -1 -138 -4 -147 -16 -8 -11
-28 -16 -63 -15 -43 1 -55 5 -77 29 -30 32 -27 7 -28 303 -1 110 -4 138 -20
167 l-19 36 53 14 c86 25 176 39 332 51 39 3 99 8 135 12 36 3 83 7 105 9 22
1 41 3 43 4 1 1 7 4 12 5 6 1 11 3 13 5 2 2 21 6 62 13 152 26 311 165 341
299 11 50 18 93 23 136 0 7 19 19 41 28 22 9 40 20 40 24 0 36 -147 57 -432
62 -54 1 -103 5 -110 10 -7 4 -10 8 -6 8 3 0 0 21 -8 47 -8 26 -12 55 -8 65
14 46 12 68 -12 117 -14 30 -26 75 -28 104 -2 30 -14 77 -29 109 -15 31 -27
61 -27 66 0 5 -11 22 -25 38 -23 27 -29 39 -22 47 1 2 -4 11 -12 20 -7 10 -10
17 -5 17 15 0 -80 91 -121 116 -22 13 -51 39 -64 59 -13 19 -27 35 -31 35 -5
0 -27 18 -50 40 -42 40 -75 59 -142 80 -21 6 -38 15 -38 19 0 24 -244 107
-340 115 -232 20 -367 25 -410 15z"/>
</g>
</svg>
